# xmcd
#
# Track frame offsets:
#	150
#	9728
#	22703
#	30263
#	42578
#	53266
#	63384
#	72287
#	84250
#	93663
#	103143
#	113741
#
# Disc length: 1651 seconds
#
# Revision: 1
# Processed by: cddbd v1.5.2PL0 Copyright (c) Steve Scherf et al.
# Submitted via: audiograbber 1.83.01
#
DISCID=8a06710c
DTITLE=Buck Owens - Roll Out The Red Carpet
DYEAR=1966
DGENRE=Country
TTITLE0=Gonna Roll Out The Red Carpet
TTITLE1=He Don't Deserve You Anymore
TTITLE2=Cajun Fiddle
TTITLE3=That's What I'm Like Without You
TTITLE4=I'm Layin' It On The Line
TTITLE5=Hangin' On To What I Got
TTITLE6=We Split The Blanket
TTITLE7=Cinderella
TTITLE8=Tom Cattin'
TTITLE9=There Never Was A Fool
TTITLE10=After You Leave Me
TTITLE11=(I'll Love You0 Forever And Ever
EXTD=
EXTT0=
EXTT1=
EXTT2=
EXTT3=
EXTT4=
EXTT5=
EXTT6=
EXTT7=
EXTT8=
EXTT9=
EXTT10=
EXTT11=
PLAYORDER=
